<?xml version="1.0" encoding="UTF-8"?>
<svg id="Capa_2" data-name="Capa 2" xmlns="http://www.w3.org/2000/svg" viewBox="0 0 113.27 113.27">
  <defs>
    <style>
      .cls-1 {
        fill: #fff;
      }
    </style>
  </defs>
  <g id="Capa_1-2" data-name="Capa 1">
    <g>
      <path class="cls-1" d="m39.11,2.72c-8.96-.01-17.92-.02-26.88,0C5.15,2.73.02,7.86.01,14.94c-.02,8.96-.02,17.92,0,26.88.01,7.07,5.14,12.2,12.22,12.21,8.96.02,17.92.02,26.88,0,7.08-.01,12.19-5.14,12.21-12.23.01-4.44,0-8.88,0-13.32,0-4.52.01-9.04,0-13.57-.02-7.08-5.14-12.2-12.23-12.21Z"/>
      <path class="cls-1" d="m51.33,74.16c-.02-7.09-5.13-12.21-12.21-12.22-8.96-.02-17.92-.01-26.88,0-7.08.01-12.21,5.13-12.22,12.21-.02,8.96-.02,17.92,0,26.88.01,7.08,5.13,12.21,12.21,12.22,8.96.02,17.92.02,26.88,0,7.09-.01,12.2-5.13,12.22-12.21.02-4.48,0-8.96,0-13.44,0-4.48.01-8.96,0-13.44Z"/>
      <path class="cls-1" d="m110.55,74.16c-.02-7.09-5.13-12.21-12.21-12.22-8.96-.02-17.92-.01-26.88,0-7.08.01-12.21,5.13-12.22,12.21-.02,8.96-.02,17.92,0,26.88.01,7.08,5.13,12.21,12.21,12.22,8.96.02,17.92.02,26.88,0,7.09-.01,12.2-5.13,12.22-12.21.02-4.44,0-8.88,0-13.32,0-4.52.01-9.04,0-13.57Z"/>
      <path class="cls-1" d="m76.99,53.59c4.43,4.26,11.47,4.22,15.89-.05,5.82-5.63,11.56-11.35,17.18-17.18,4.31-4.46,4.29-11.53-.02-15.98-5.63-5.82-11.36-11.55-17.18-17.18-4.39-4.25-11.48-4.27-15.89-.01-5.86,5.65-11.56,11.46-17.28,17.26-2.11,2.14-3.01,4.85-3.12,7.93.06,2.93.92,5.71,3.06,7.89,5.74,5.83,11.47,11.68,17.36,17.34Z"/>
    </g>
  </g>
</svg>